<?xml version="1.0" encoding="utf-8"?>
<!-- Generator: Adobe Illustrator 24.3.0, SVG Export Plug-In . SVG Version: 6.00 Build 0)  -->
<svg version="1.1" id="Laag_1" xmlns="http://www.w3.org/2000/svg" xmlns:xlink="http://www.w3.org/1999/xlink" x="0px" y="0px"
	 viewBox="0 0 1366 768" style="enable-background:new 0 0 1366 768;" xml:space="preserve">
<style type="text/css">
	.st0{fill:#00A0DB;}
	.st1{fill:#FFFFFF;stroke:#FFFFFF;stroke-width:4;stroke-miterlimit:10;}
	.st2{fill:#E31E2F;stroke:#FFFFFF;stroke-width:20;stroke-miterlimit:10;}
</style>
<rect x="463" y="164.5" class="st0" width="440" height="440"/>
<polyline class="st1" points="741.34,276.62 867.63,313.04 860.89,336.41 760.89,307.57 "/>
<polyline class="st1" points="723.16,357.25 809.09,382.03 802.35,405.4 716.42,380.62 "/>
<path class="st1" d="M755.35,275.64l-53.49,205.8h-30.82l-43.26-170.83l-42.29,170.83h-30.13l-54.46-205.8h28.06l43.26,171.11
	l42.57-171.11h27.78l42.98,172.77l42.98-172.77H755.35z"/>
<g>
	<circle class="st2" cx="849.89" cy="320.27" r="27"/>
	<circle class="st2" cx="804.7" cy="395.84" r="27"/>
	<circle class="st2" cx="516.1" cy="287.5" r="27"/>
	<circle class="st2" cx="741.1" cy="287.5" r="27"/>
	<circle class="st2" cx="718.98" cy="368.34" r="27"/>
	<circle class="st2" cx="628.1" cy="287.5" r="27"/>
	<circle class="st2" cx="571.1" cy="481.5" r="27"/>
	<circle class="st2" cx="687.1" cy="481.5" r="27"/>
</g>
</svg>
